<?xml version="1.0" standalone="no"?>
<!DOCTYPE svg PUBLIC "-//W3C//DTD SVG 20010904//EN"
 "http://www.w3.org/TR/2001/REC-SVG-20010904/DTD/svg10.dtd">
<svg version="1.0" xmlns="http://www.w3.org/2000/svg"
 width="250.000000pt" height="250.000000pt" viewBox="0 0 250.000000 250.000000"
 preserveAspectRatio="xMidYMid meet">
<metadata>
Created by potrace 1.11, written by Peter Selinger 2001-2013
</metadata>
<g transform="translate(0.000000,250.000000) scale(0.100000,-0.100000)"
fill="#000000" stroke="none">
<path d="M1450 2488 c0 -5 -4 -6 -10 -3 -5 3 -10 2 -10 -4 0 -6 -12 -14 -27
-17 -15 -4 -34 -14 -42 -21 -7 -8 -20 -12 -27 -9 -8 3 -14 2 -14 -2 0 -10 -84
-47 -132 -58 -5 -1 -9 -2 -10 -4 -23 -18 -222 -28 -305 -16 -74 11 -60 -11
104 -166 38 -36 46 -52 47 -100 1 -36 -3 -52 -16 -59 -23 -13 -16 -42 11 -44
12 -1 24 2 26 6 13 20 42 -6 54 -47 7 -24 18 -44 25 -44 6 0 4 -5 -4 -10 -12
-8 -12 -10 -1 -10 17 0 9 -10 -11 -14 -35 -7 -75 -20 -93 -29 -11 -6 -24 -11
-30 -12 -9 0 -101 -29 -135 -42 -8 -4 -21 -5 -27 -4 -7 1 -13 -3 -13 -9 0 -5
-3 -9 -7 -9 -5 1 -10 1 -13 -1 -3 -1 -16 -4 -29 -6 -14 -2 -38 -11 -54 -19
-16 -8 -33 -12 -37 -10 -5 3 -10 0 -12 -7 -6 -17 -131 -15 -148 2 -16 17 -62
40 -70 35 -10 -6 -9 -45 1 -45 8 0 4 -122 -6 -164 -8 -38 -23 -66 -36 -66 -6
0 -8 -4 -5 -8 3 -5 -3 -15 -12 -24 -29 -25 -97 -102 -96 -108 1 -3 -1 -11 -4
-19 -7 -19 27 -206 45 -241 23 -47 103 -75 103 -36 0 7 9 21 19 33 10 11 26
34 35 51 9 18 21 32 27 32 6 0 8 4 5 9 -4 5 -3 11 1 13 16 7 72 96 65 103 -4
5 1 5 10 2 10 -3 17 -3 16 1 -4 14 14 52 24 52 6 0 9 3 6 6 -4 3 -2 19 2 35 6
19 5 29 -2 29 -6 0 -5 7 3 16 8 9 14 31 15 48 0 17 4 40 8 51 4 11 12 32 18
47 12 33 52 61 86 61 23 0 55 -28 90 -78 28 -40 48 -115 31 -115 -6 0 -8 -4
-5 -8 2 -4 -9 -19 -26 -32 -43 -34 -81 -120 -82 -187 -1 -30 2 -57 6 -59 5 -3
8 -15 8 -28 0 -12 15 -40 33 -61 l33 -38 32 31 c18 18 30 32 27 32 -3 0 6 12
20 27 14 15 25 31 25 36 0 4 6 5 13 1 6 -4 9 -4 5 1 -4 4 22 43 57 85 36 43
65 81 65 84 0 4 16 22 35 40 19 19 35 37 35 40 0 13 44 55 52 50 4 -3 6 -9 3
-14 -3 -5 -1 -11 4 -15 6 -3 8 -11 6 -18 -3 -7 -6 -30 -8 -52 -2 -22 -9 -53
-16 -69 -6 -16 -13 -37 -14 -46 -2 -10 -9 -26 -17 -35 -9 -11 -13 -36 -11 -73
6 -104 -1 -152 -19 -152 -14 0 -184 -160 -223 -209 -18 -22 -16 -58 2 -47 5 4
11 1 13 -5 3 -8 16 -10 41 -5 21 4 35 11 32 16 -5 8 34 26 44 21 2 -2 7 2 11
9 4 6 19 12 33 14 15 1 30 6 33 9 7 7 46 -11 55 -26 10 -14 -2 -48 -14 -40 -6
3 -7 1 -3 -6 16 -25 -60 -62 -139 -67 -22 -1 -41 -7 -43 -13 -2 -5 -9 -8 -16
-5 -28 11 -60 -46 -36 -61 6 -4 8 -10 5 -15 -3 -5 12 -21 32 -37 21 -15 40
-30 43 -33 3 -3 14 -7 25 -8 19 -4 67 -34 92 -58 14 -14 25 -62 15 -68 -4 -2
-29 -7 -56 -10 -27 -4 -57 -11 -68 -17 -10 -5 -18 -7 -18 -4 0 4 -7 -1 -16 -9
-8 -9 -19 -16 -24 -16 -15 0 -70 61 -64 71 3 5 1 9 -3 9 -12 0 -45 79 -38 91
4 5 2 9 -3 9 -5 0 -9 15 -10 32 -1 18 -4 44 -7 58 -33 147 -41 287 -19 339 17
40 6 58 -24 42 -10 -6 -22 -7 -26 -4 -3 3 -6 1 -6 -5 0 -7 -7 -12 -15 -12 -8
0 -15 -3 -16 -7 -4 -46 -11 -78 -20 -89 -7 -8 -7 -14 1 -19 6 -3 7 -11 4 -17
-10 -16 -12 -70 -3 -95 5 -12 4 -25 0 -28 -10 -6 -9 -31 2 -41 4 -4 2 -13 -4
-21 -6 -7 -7 -13 -2 -13 5 0 9 -8 10 -17 2 -20 8 -54 18 -93 4 -14 7 -31 7
-37 1 -7 5 -13 10 -13 4 0 8 -8 8 -19 0 -10 14 -44 30 -75 17 -31 28 -56 24
-56 -3 0 1 -7 8 -15 27 -29 38 -44 38 -50 0 -3 8 -13 18 -23 26 -29 47 -63 44
-74 -1 -5 2 -7 7 -4 5 4 18 -5 29 -19 22 -28 29 -29 69 -14 15 6 30 11 33 11
3 0 14 5 25 11 11 6 22 12 25 13 3 0 12 3 20 6 56 21 154 48 174 48 12 0 26 3
30 7 11 12 56 11 56 -1 0 -5 3 -6 6 -3 8 8 64 -24 64 -35 0 -4 7 -8 16 -8 8 0
13 -4 10 -8 -3 -5 6 -20 19 -34 13 -14 21 -29 18 -32 -4 -3 -1 -6 5 -6 6 0 17
-10 24 -22 14 -24 50 -35 42 -13 -3 7 0 16 7 21 8 5 10 3 5 -7 -4 -8 0 -5 8 5
9 11 16 24 16 30 0 5 3 7 6 4 15 -16 134 138 134 174 0 10 5 18 10 18 6 0 10
6 9 13 -1 6 4 26 11 42 7 17 14 39 16 50 5 34 9 49 17 63 5 7 3 12 -3 12 -6 0
-8 4 -5 10 6 10 14 41 19 75 2 11 4 20 5 20 1 0 4 15 7 34 2 19 7 46 10 60 3
14 7 33 8 41 2 8 8 26 13 40 6 14 9 28 6 33 -2 4 0 7 6 7 6 0 8 6 5 14 -3 8
-1 17 5 21 22 13 11 67 -21 108 -40 50 -78 89 -78 79 0 -4 -4 -2 -8 4 -10 14
-110 62 -147 70 -73 15 -134 22 -180 19 -27 -1 -42 -1 -32 2 9 2 15 9 11 14
-3 5 -2 9 3 8 13 -2 53 13 53 20 0 3 15 7 33 8 48 4 64 8 79 21 8 6 19 8 23 4
5 -4 5 -2 2 4 -4 7 -1 14 7 17 19 7 72 88 71 107 -1 8 2 23 7 32 5 10 3 18 -5
21 -7 3 -8 6 -1 6 8 1 9 14 2 44 -5 23 -9 48 -10 55 -1 6 -5 12 -10 12 -4 0
-8 5 -8 11 0 6 -7 17 -15 25 -27 27 -16 31 68 27 45 -2 164 -5 264 -7 101 -1
186 -5 189 -9 4 -3 14 -2 24 3 10 5 20 7 22 4 10 -9 69 68 64 82 -3 8 -1 14 5
14 6 0 6 7 -1 19 -7 14 -7 22 0 26 8 5 7 12 -2 22 -7 9 -12 19 -10 22 5 10
-30 81 -38 76 -4 -3 -14 3 -21 12 -12 14 -12 16 1 8 8 -5 -3 8 -24 28 -21 20
-42 37 -46 37 -3 0 -15 8 -26 18 -44 41 -154 67 -276 67 -32 0 -58 2 -58 5 0
3 -21 5 -47 5 -38 0 -53 5 -70 24 -13 13 -23 21 -23 17 0 -4 -9 -2 -20 4 -11
6 -20 7 -20 2 0 -5 -10 -8 -22 -7 -13 1 -43 -7 -67 -17 -24 -10 -51 -20 -60
-21 -9 -1 -22 -6 -29 -11 -9 -5 -28 2 -55 22 -36 25 -72 39 -122 47 -5 1 -12
3 -15 4 -4 3 -36 8 -77 13 -19 2 -16 18 5 24 32 10 57 21 100 42 24 12 40 16
35 9 -5 -9 -3 -9 8 -1 8 6 41 21 74 34 33 12 76 29 95 38 37 17 42 19 63 21 7
0 23 10 34 20 12 11 24 17 29 13 4 -4 4 -2 1 4 -4 7 -1 16 6 22 7 6 12 24 11
39 -1 15 -3 33 -3 40 -1 6 -12 25 -26 41 -13 16 -22 32 -18 36 3 3 0 6 -9 6
-8 0 -23 9 -33 20 -10 11 -24 20 -30 20 -7 0 -18 7 -25 15 -7 8 -16 12 -21 9
-5 -3 -9 -1 -9 4 0 5 -9 12 -20 15 -11 3 -20 1 -20 -5z m417 -641 c8 -13 34
-25 110 -47 64 -19 65 -64 3 -86 -14 -4 -28 -7 -32 -6 -5 1 -8 -2 -8 -7 0 -10
-144 -60 -195 -66 -40 -6 -40 -1 4 45 7 8 19 28 26 44 11 25 11 34 0 49 -15
22 -9 47 11 47 8 0 13 6 12 13 -2 6 5 11 15 11 9 -1 17 2 17 7 0 14 28 11 37
-4z m-324 -66 c6 -24 -3 -71 -13 -71 -5 0 -7 -8 -5 -17 1 -10 -2 -26 -6 -35
-5 -9 -10 -28 -11 -42 -1 -15 -5 -26 -8 -26 -10 0 -40 -57 -33 -64 3 -3 2 -6
-3 -6 -5 0 -9 -25 -9 -55 0 -30 4 -55 8 -55 5 0 6 -4 2 -9 -3 -6 8 -23 24 -40
16 -16 27 -32 24 -35 -3 -2 5 -2 18 1 26 7 24 4 -32 -72 -20 -27 -59 -69 -85
-93 -27 -23 -56 -50 -65 -58 -23 -21 -34 -1 -15 28 15 24 16 44 3 65 -11 18
-8 163 3 163 3 0 6 12 7 28 0 25 9 77 13 77 1 0 3 11 5 25 2 14 6 45 10 70 4
25 7 51 8 58 0 6 4 12 9 12 4 0 7 3 6 8 -3 12 25 97 35 103 5 3 8 9 8 13 -3
19 1 27 26 50 24 22 28 23 49 10 12 -8 24 -23 27 -33z m-352 -51 c5 -27 3 -90
-3 -90 -4 0 -8 -6 -8 -14 0 -8 -7 -17 -16 -20 -8 -3 -13 -10 -10 -14 3 -5 -6
-15 -19 -22 -13 -7 -22 -17 -19 -22 3 -4 -1 -8 -10 -8 -8 0 -16 -5 -18 -12 -4
-12 -38 -21 -38 -10 0 4 -15 32 -32 62 -18 30 -33 60 -34 67 -2 10 42 35 63
35 4 0 20 9 36 20 15 11 27 16 27 12 0 -3 6 -1 13 5 8 6 17 8 20 4 4 -3 7 -2
7 3 0 10 39 14 41 4z m437 -793 c17 -10 32 -24 32 -32 0 -8 4 -15 8 -15 9 0
10 -5 15 -65 2 -22 0 -45 -5 -52 -5 -7 -5 -14 2 -18 6 -4 7 -13 2 -23 -5 -9
-10 -39 -11 -67 -2 -45 -6 -76 -14 -140 -7 -45 -44 -135 -61 -147 -6 -4 -8 -8
-3 -8 4 0 -5 -13 -19 -30 -17 -19 -35 -29 -50 -28 -13 1 -24 6 -24 10 0 4 -7
8 -16 8 -8 0 -12 5 -9 10 4 6 3 10 -2 9 -17 -4 -63 13 -57 22 3 5 -2 6 -10 3
-9 -3 -16 -2 -16 4 0 5 -13 12 -29 15 -44 9 -43 36 3 80 37 35 49 41 69 38 5
-1 6 2 3 7 -3 5 10 16 29 25 19 9 35 22 35 27 0 6 5 8 10 5 6 -3 10 3 10 14 0
12 5 21 11 21 18 0 -1 42 -37 83 -19 20 -34 34 -34 31 0 -3 -30 24 -67 59 -61
60 -65 66 -50 81 8 9 18 16 22 16 4 0 26 14 51 30 24 17 44 28 44 24 0 -3 7
-1 15 6 8 7 15 9 15 6 0 -4 7 -3 16 2 25 14 85 8 122 -11z"/>
</g>
</svg>
